<svg width="153" height="159" viewBox="0 0 153 159" fill="none" xmlns="http://www.w3.org/2000/svg">
<path d="M15.7333 4.26668C13.3333 18.2667 13.4667 22.4 16.9333 39.3333C18.9333 48.8 21.2 57.4667 21.8667 58.2667C22.9333 59.6 22.5333 60 20.4 60C18.6667 60 16 62.2667 13.0667 66.2667C10.5333 69.7333 8.66667 72.8 8.93333 73.2C9.2 73.4667 13.2 70.6667 17.8667 67.0667C22.5333 63.4667 27.2 60.1333 28.4 59.7333C30.4 58.9333 30.2667 57.3333 26.9333 43.0667C24.9333 34.4 23.8667 26.9333 24.5333 26.5333C25.2 26.1333 25.0667 24.1333 24.2667 22C23.4667 20 23.0667 18 23.4667 17.7333C24.9333 16.2667 34 21.7333 39.0667 27.3333C48.6667 37.7333 48.5333 38.6667 34 59.7333C26.9333 69.7333 20.9333 79.0667 20.6667 80.4C20.2667 81.6 15.4667 86.2667 10 90.6667L0 98.6667L30.2667 128.667L60.5333 158.667H76.5333H92.5333L122.533 128.8L152.533 98.9334L142.4 90.5334C136.8 86 132.267 81.7333 132.267 81.0667C132.267 80.4 126.267 71.2 119.067 60.6667C103.867 38.6667 103.733 37.8667 113.333 27.4667C118.267 22.1333 127.733 16.4 129.2 17.7333C129.467 18.1333 129.067 20 128.267 22C127.467 24.1333 127.333 26.1333 128 26.5333C128.667 26.9333 127.6 34.4 125.6 43.0667C122.267 57.3333 122.133 58.9333 124.133 59.7333C125.333 60.1333 126.533 60.8 126.933 61.2C128.267 62.8 142.8 73.3333 143.6 73.3333C145.467 73.3333 135.733 60.9333 133.333 60.2667C132 60 131.067 58.9333 131.333 58C131.733 57.2 133.6 48.5333 135.6 38.8C138.933 22.6667 139.067 20.2667 137.733 10.9333C136.933 5.46668 136 0.533345 135.6 0.266679C135.333 1.20699e-05 132.533 1.46668 129.333 3.60001C126.133 5.73335 120.133 9.46668 116 11.8667C111.733 14.2667 108.267 16.5333 108.267 16.8C108.267 17.2 108.933 17.0667 109.867 16.5333C110.8 16 110.933 16.1333 110.4 17.2C109.867 18 108.8 18.4 108.133 18C107.467 17.6 104.267 18.8 101.067 20.6667C95.3333 24 94.1333 24.1333 76.2667 24.1333H57.3333L37.3333 12.1333C26.4 5.46668 17.2 1.20699e-05 16.9333 1.20699e-05C16.8 1.20699e-05 16.2667 2.00001 15.7333 4.26668ZM58.4 25.8667C59.4667 26 61.0667 26.9333 61.8667 27.7333C64.4 30.2667 88.8 29.8667 90.9333 27.3333C91.8667 26.1333 92.9333 25.6 93.3333 26C93.7333 26.2667 96.1333 25.3333 98.8 23.7333C104.4 20.4 103.467 21.4667 94.5333 28.5333L88.1333 33.6L91.7333 38.5333C93.7333 41.2 95.6 43.6 95.8667 43.8667C96.1333 44.2667 98.2667 42.6667 100.667 40.5333L104.933 36.6667L101.067 40.9333C97.3333 45.2 97.3333 45.2 99.7333 48.4C101.2 50.1333 104.933 55.2 108.133 59.4667C111.467 63.7333 120.267 74.9333 127.733 84.1333L141.333 100.933L125.467 114C110.533 126 109.6 127.067 111.467 129.2C114.133 132.133 114.133 134.4 111.733 134.933C110.667 135.2 105.067 139.467 99.2 144.4L88.5333 153.6H76.4H64.1333L53.0667 144.133C46.9333 138.933 41.2 134.667 40.4 134.667C38.2667 134.667 38.5333 131.867 41.0667 129.2C42.9333 127.067 42 126 27.2 113.867L11.2 100.8L24.8 84.1333C32.4 74.9333 41.0667 63.7333 44.4 59.4667C47.6 55.2 51.3333 50.1333 52.8 48.4C55.2 45.2 55.2 45.2 51.4667 40.9333L47.6 36.6667L51.7333 40.4L55.8667 44.1333L60 39.2C64 34.4 64.1333 34 61.8667 31.6C60.6667 30.1333 56.1333 26.6667 52 23.7333C47.7333 20.9333 44.2667 18.2667 44.2667 17.8667C44.2667 17.4667 47.0667 19.0667 50.4 21.4667C53.7333 23.7333 57.3333 25.7333 58.4 25.8667Z" fill="black"/>
<path d="M40.6666 83.7333C32.4 88.6667 25.6 93.0667 25.6 93.6C25.6 95.7333 57.7333 118.8 59.3333 117.867C60.1333 117.333 64.4 114.267 68.5333 110.933L76.1333 105.067L83.8666 110.933C88.1333 114.267 92.4 117.333 93.2 117.867C94.2666 118.4 101.2 114 111.067 106.533C124.267 96.5333 126.933 94.1333 125.467 92.6667C124.4 91.8667 117.333 87.3333 109.867 82.8L96 74.5333L91.2 77.6C88.5333 79.3333 86 80.9333 85.3333 81.4667C83.8666 82.4 90.9333 100.133 92.4 99.2C93.0666 98.8 93.6 100.933 93.6 103.867C93.6 113.333 90.4 110.267 83.6 94.6667C80 86.5333 76.8 80 76.2666 80C75.7333 80 72.5333 86.5333 68.9333 94.6667C62.1333 110.267 58.5333 113.733 59.2 104.133C59.3333 101.2 59.8666 99.0667 60.2666 99.3333C61.0666 99.8667 68.6666 82.5333 67.8666 82C62.6666 78.2667 56.8 74.6667 56.2666 74.8C55.8666 74.8 48.8 78.9333 40.6666 83.7333ZM59.2 91.3333C57.0666 95.8667 54.5333 97.3333 52.9333 94.8C52.5333 94 53.2 92.9333 54.4 92.2667C55.7333 91.4667 56.4 90.1333 55.8666 88.9333C55.2 87.3333 53.8666 86.9333 50 87.6C44.5333 88.4 44.6666 87.6 50.5333 84C54.1333 81.8667 54.4 81.8667 57.7333 84.1333C61.2 86.5333 61.2 86.6667 59.2 91.3333ZM106.933 87.6C106.933 87.8667 104.667 88 102 87.7333C96.5333 87.3333 94.5333 89.7333 98.4 92.5333C100.667 94.2667 100.667 94.4 98 95.8667C95.4666 97.2 95.0666 96.9333 94.2666 93.3333C93.7333 91.2 92.8 88.9333 92 88.5333C91.2 88 92.2666 86.4 94.4 84.6667L98.1333 81.7333L102.533 84.2667C104.933 85.7333 106.933 87.2 106.933 87.6Z" fill="black"/>
<path d="M70.9333 124.133C69.0667 125.733 66.5333 127.733 65.2 128.667C62.9333 130.267 62.9333 130.667 64.9333 135.467C68.1333 143.067 70.6667 145.333 76.2667 145.333C81.8667 145.333 85.7333 142 88 135.067C89.3333 130.933 89.2 130.533 83.7333 126C77.0667 120.667 75.4667 120.4 70.9333 124.133ZM81.6 132C81.6 132.667 79.2 133.333 76.2667 133.333C73.3333 133.333 70.9333 132.667 70.9333 132C70.9333 131.2 73.3333 130.667 76.2667 130.667C79.2 130.667 81.6 131.2 81.6 132ZM80.6667 140.267C80.4 140.933 78.4 141.333 76.2667 141.333C74.1333 141.333 72.1333 140.933 71.8667 140.267C71.4667 139.733 73.4667 139.333 76.2667 139.333C79.0667 139.333 81.0667 139.733 80.6667 140.267Z" fill="black"/>
<path d="M30.1333 32.9334C30.5333 34.2667 31.2 37.6 31.7333 40.2667C32.6667 46.2667 33.4667 46.4 36.8 41.8667C39.2 38.5334 39.2 38.4 35.4667 34.5334C31.3333 30.1334 29.0667 29.4667 30.1333 32.9334Z" fill="black"/>
<path d="M117.467 34.4L113.2 38.2667L115.733 41.7334C117.067 43.7334 118.667 45.3334 119.067 45.3334C120 45.3334 122.933 31.6 122.267 30.9334C122 30.6667 119.867 32.2667 117.467 34.4Z" fill="black"/>
</svg>
